<svg width="96" height="96" viewBox="0 0 96 96" fill="none" xmlns="http://www.w3.org/2000/svg">
<path d="M90.5391 81.8488H88.1489C102.789 52.5301 80.9128 16.0821 48.0561 16.0821C36.8086 16.0821 25.6171 20.5991 17.4296 28.2974C12.9934 32.4684 9.47198 37.4148 7.02173 42.9803C4.41335 48.7158 3.19182 54.9046 3.19182 61.3801C3.19182 68.4518 4.92962 75.5093 7.97431 81.8488H5.5741C2.6772 75.3268 1 68.5351 1 61.3801C1 54.7114 2.32011 48.1967 4.95731 42.1287C7.59945 36.2006 11.2662 31.0191 15.808 26.7283C24.4657 18.5314 36.1333 14 48.0561 14C60.6679 14 72.8333 19.3266 81.6195 28.3595C89.6838 36.8014 94.3753 47.7578 94.9635 59.3072C95.2495 67.133 93.7294 74.7105 90.5391 81.8488Z" fill="#0466AD"/>
<path d="M20.2957 31.2672C27.8415 24.1912 37.6904 20.0475 48.0561 20.0475C57.705 20.0475 67.427 23.7434 74.6672 30.1008L74.6913 30.122L74.7178 30.1399C74.8849 30.2524 74.9931 30.4638 75.0056 30.7701C75.0174 31.0572 74.9384 31.3573 74.8175 31.57C74.5694 31.8025 74.3379 31.9049 74.1282 31.9269C73.9138 31.9495 73.6606 31.8944 73.3622 31.7038C66.3013 25.6121 57.3932 22.1296 48.0561 22.1296C38.0728 22.1296 28.6932 25.8538 21.4688 32.8357C17.6306 36.4036 14.5553 40.7497 12.553 45.5685C10.4097 50.5184 9.18012 55.9422 9.18012 61.3801C9.18012 68.7946 11.4203 75.4873 14.9092 81.8488H12.5847C9.14526 75.5447 7.28771 68.5313 7.28771 61.3801C7.28771 50.0398 12.0255 39.0227 20.2957 31.2672Z" fill="#0466AD"/>
<path d="M77.7166 35.9435C77.3501 35.4945 77.3851 34.9073 77.7459 34.486C78.294 34.1558 78.8457 34.2154 79.1618 34.6377L79.1707 34.6496L79.1803 34.6609C90.2674 47.7692 92.115 67.0582 83.6813 82H81.3528C85.1072 75.1535 87.3853 67.9679 87.0812 59.9814C86.7732 51.292 83.3972 42.6137 77.7166 35.9435Z" fill="#0466AD"/>
<path d="M47.9439 13C46.7462 13 45.6983 13 44.5006 13.1512C32.8234 13.9071 21.8947 19.1987 13.6608 27.6652C5.4269 36.2829 0.636257 47.4708 0.0374271 59.2635C-0.112281 63.3456 0.187132 67.2765 0.93567 71.2074C1.68421 75.1382 3.03158 78.9179 4.67836 82.5465L4.82808 82.8488H5.27719C5.87602 82.8488 6.47486 82.8488 7.07369 82.8488C7.52281 82.8488 7.97193 82.8488 8.42105 82.8488H9.46901L9.01988 81.9417C5.4269 74.987 3.78012 67.2765 4.07954 59.4147C4.52866 48.6804 9.0199 38.3996 16.5053 30.5378C24.1404 22.676 34.1708 17.9892 44.8 17.2332C45.848 17.2332 46.8959 17.0821 47.9439 17.0821C53.0339 17.0821 58.124 17.9892 62.9146 19.8035C68.4538 21.9201 73.5439 24.9438 77.8854 29.0259C82.2269 33.108 85.6702 37.946 88.0655 43.3888C90.6105 48.9827 91.8082 55.0302 91.8082 61.3801C91.8082 68.486 90.0117 75.5918 86.8679 81.9417L86.4187 82.8488H87.4667C88.5146 82.8488 89.5626 82.8488 90.6105 82.8488H91.0596L91.2094 82.5465C92.7064 79.2203 94.0538 75.8942 94.8023 72.2657C95.5509 68.6372 96 65.0087 96 61.3801C96 54.5767 94.6526 47.9244 91.9579 41.7257C89.2632 35.6782 85.5205 30.3866 80.8795 26.0021C76.0889 21.4665 70.6994 18.1404 64.5614 15.8726C59.0222 14.0583 53.4831 13 47.9439 13Z" fill="#0466AD"/>
<path d="M82.8836 61.2401L82.8737 61.3098V61.3801C82.8737 61.8955 82.4139 62.3456 81.9275 62.3456H74.5918C74.1054 62.3456 73.6456 61.8955 73.6456 61.3801C73.6456 60.8648 74.1054 60.4147 74.5918 60.4147H81.9275C82.6537 60.4147 82.93 60.9115 82.8836 61.2401Z" fill="#0466AD"/>
<path d="M60.9047 36.3803L60.9202 36.3569L63.8984 31.2438C64.242 30.797 64.5682 30.6307 64.8608 30.6307C64.979 30.6307 65.0561 30.6309 65.1227 30.6342C65.1614 30.6361 65.1866 30.6387 65.2023 30.6408L65.3342 30.774L65.5116 30.8508C65.9173 31.0264 66.1232 31.6483 65.8228 32.1035L65.8073 32.1269L62.8291 37.24C62.4856 37.6868 62.1593 37.8531 61.8667 37.8531C61.6895 37.8531 61.5792 37.8125 61.3335 37.6902C61.1177 37.5292 60.9557 37.2873 60.8701 37.0278C60.8345 36.92 60.8152 36.7857 60.8244 36.6558C60.8335 36.5269 60.8677 36.4364 60.9047 36.3803Z" fill="#0466AD"/>
<path d="M32.956 37.3208L29.9307 32.1269L29.9153 32.1035C29.8052 31.9368 29.773 31.7252 29.8502 31.4718C29.9256 31.2243 30.0987 30.975 30.3377 30.7979C30.4261 30.7572 30.5344 30.7151 30.6432 30.6822C30.7086 30.6624 30.7659 30.6484 30.8121 30.6398C30.8526 30.6323 30.8735 30.6309 30.8772 30.6307C31.1132 30.6307 31.2727 30.677 31.3938 30.7459C31.5147 30.8145 31.6595 30.9408 31.8119 31.1963L34.8178 36.3569L34.8333 36.3803C34.9433 36.547 34.9756 36.7586 34.8984 37.012C34.823 37.2595 34.6499 37.5088 34.4109 37.6859C34.3224 37.7266 34.2141 37.7686 34.1054 37.8016C34.04 37.8214 33.9826 37.8354 33.9364 37.844C33.8875 37.8531 33.8672 37.8531 33.8713 37.8531C33.4719 37.8531 33.0884 37.5882 32.971 37.3511L32.956 37.3208Z" fill="#0466AD"/>
<path d="M22.9744 48.1052L17.8593 45.0666L17.8007 45.0412C17.401 44.8682 17.1952 44.2621 17.4764 43.809C17.8234 43.3512 18.153 43.1804 18.4485 43.1793C18.4538 43.18 18.4934 43.1855 18.6003 43.2215C18.664 43.243 18.733 43.2684 18.8264 43.303L18.8417 43.3086C18.9113 43.3343 18.9905 43.3635 19.077 43.3938L24.1337 46.3978L24.1923 46.4231C24.592 46.5961 24.7978 47.2023 24.5166 47.6554C24.1684 48.1147 23.8377 48.2851 23.5415 48.2851C23.3564 48.2851 23.2444 48.2408 22.9744 48.1052Z" fill="#0466AD"/>
<path d="M13.9602 60.4147H21.2959C21.7823 60.4147 22.2421 60.8648 22.2421 61.3801C22.2421 61.8955 21.7823 62.3456 21.2959 62.3456H13.9602C13.4738 62.3456 13.014 61.8955 13.014 61.3801C13.014 60.8648 13.4738 60.4147 13.9602 60.4147Z" fill="#0466AD"/>
<path d="M46.9977 26.9093C46.9977 26.394 47.4575 25.9438 47.9439 25.9438C48.4303 25.9438 48.8901 26.3939 48.8901 26.9093V34.3175C48.8901 34.8328 48.4303 35.2829 47.9439 35.2829C47.4575 35.2829 46.9977 34.8328 46.9977 34.3175V26.9093Z" fill="#0466AD"/>
<path d="M71.8372 46.3484L76.866 43.361C76.9594 43.316 77.0806 43.2677 77.2023 43.2308C77.2677 43.211 77.325 43.197 77.3712 43.1884C77.4116 43.1809 77.4326 43.1795 77.4363 43.1793C77.5006 43.1793 77.6605 43.2111 77.8799 43.3414C78.0463 43.4402 78.2056 43.5719 78.3352 43.7176C78.3776 43.8619 78.4113 44.0031 78.4297 44.1336C78.4568 44.325 78.4395 44.4158 78.4329 44.436C78.344 44.7051 78.1731 44.9553 77.9453 45.116L72.9164 48.1034C72.8231 48.1484 72.7019 48.1967 72.5802 48.2336C72.5148 48.2534 72.4574 48.2674 72.4112 48.276C72.3856 48.2808 72.3678 48.2831 72.3572 48.2841C72.3512 48.2848 72.3462 48.2851 72.3462 48.2851C71.9733 48.2851 71.6142 48.0541 71.4727 47.8305C71.4185 47.6574 71.3747 47.4865 71.3527 47.3308C71.3256 47.1394 71.343 47.0485 71.3496 47.0283C71.4384 46.7592 71.6093 46.5091 71.8372 46.3484Z" fill="#0466AD"/>
<path fill-rule="evenodd" clip-rule="evenodd" d="M54.6168 50.4329L54.6244 50.4371L54.9739 50.6312L56.7747 48.6147L56.1526 48.3197L56.0997 48.2944C56.0538 48.2724 55.9879 48.2407 55.9081 48.2019C55.7483 48.1242 55.5338 48.0187 55.3139 47.9069C55.2574 47.8781 55.2009 47.8491 55.1451 47.8202C55.7183 47.4815 56.205 47.026 56.6013 46.4567C57.204 45.6021 57.5 44.612 57.5 43.5061C57.5 42.5724 57.2859 41.718 56.8486 40.9554C56.4145 40.1902 55.8159 39.5863 55.0585 39.1514C54.2968 38.7142 53.4444 38.5 52.5136 38.5C51.5828 38.5 50.7275 38.7142 49.9592 39.1502L49.9571 39.1514C49.1992 39.5865 48.6004 40.1909 48.1663 40.9567L48.1654 40.9582C47.7368 41.7204 47.5273 42.5738 47.5273 43.5061C47.5273 44.3567 47.7024 45.1471 48.0593 45.8688L48.0627 45.8754C48.427 46.5851 48.9334 47.1704 49.5786 47.6244L49.5812 47.6262C50.1886 48.0479 50.8696 48.3198 51.6175 48.4442C51.8066 48.6255 52.0522 48.8155 52.3039 48.9955C52.6279 49.2272 52.9944 49.4646 53.3358 49.6767C53.6781 49.8892 53.9996 50.0789 54.2353 50.2154C54.3533 50.2838 54.4501 50.3389 54.5176 50.3771L54.596 50.4212L54.6168 50.4329ZM51.464 41.5044C51.7712 41.3151 52.1167 41.2178 52.5136 41.2178C52.9105 41.2178 53.2561 41.3152 53.5632 41.5045L53.5699 41.5084C53.876 41.6906 54.117 41.9472 54.295 42.2917L54.2984 42.298C54.4814 42.6401 54.5789 43.0386 54.5789 43.5061C54.5789 43.9735 54.4814 44.372 54.2983 44.7141L54.295 44.7205C54.117 45.065 53.875 45.3272 53.5665 45.5181C53.2594 45.7001 52.9125 45.7943 52.5136 45.7943C52.1148 45.7943 51.7679 45.7001 51.4607 45.5181C51.1516 45.3268 50.9048 45.0635 50.7189 44.7173C50.5425 44.3746 50.4483 43.9748 50.4483 43.5061C50.4483 43.0373 50.5425 42.6375 50.7189 42.2948C50.9047 41.9487 51.1506 41.6911 51.4574 41.5085L51.464 41.5044Z" fill="#0466AD"/>
<path d="M41.3881 38.6494H38.2574L42.2009 48.3627H44.748L48.7046 38.6494H45.7386L43.5482 44.0376L41.3881 38.6494Z" fill="#0466AD"/>
<path fill-rule="evenodd" clip-rule="evenodd" d="M57.581 50.2417C57.7014 50.1201 57.8018 50.0492 57.8983 50.0058C57.9926 49.9635 58.1081 49.9363 58.2737 49.9363C58.4393 49.9363 58.5548 49.9635 58.6491 50.0058C58.7456 50.0492 58.8459 50.1201 58.9663 50.2417C59.0866 50.3631 59.1574 50.4649 59.2008 50.5637C59.2434 50.6605 59.2708 50.7791 59.2708 50.9482C59.2708 51.1172 59.2434 51.2358 59.2008 51.3326C59.1574 51.4314 59.0866 51.5332 58.9663 51.6547L51.0897 59.6092L51.2306 59.9223C51.8988 61.4068 51.624 62.9818 50.4543 64.0318L50.4434 64.0416L50.433 64.0521C49.7808 64.7107 48.8619 65.1134 47.7942 65.1134C47.2717 65.1134 46.7309 64.9799 46.3069 64.8371L46.0114 64.7377L44.8938 65.8663C44.7734 65.9879 44.6731 66.0588 44.5766 66.1022C44.4823 66.1445 44.3668 66.1717 44.2012 66.1717C44.0356 66.1717 43.92 66.1445 43.8258 66.1022C43.7292 66.0588 43.6289 65.9879 43.5085 65.8663C43.3882 65.7449 43.3175 65.6431 43.274 65.5443C43.2314 65.4475 43.2041 65.3289 43.2041 65.1598C43.2041 64.9908 43.2314 64.8721 43.274 64.7754C43.3175 64.6766 43.3882 64.5748 43.5085 64.4533L44.6483 63.3023L44.5074 62.9892C43.8392 61.5047 44.114 59.9297 45.2837 58.8796L45.2947 58.8698L45.305 58.8594C46.3754 57.7784 48.092 57.4038 49.3653 58.0468L49.69 58.2107L57.581 50.2417ZM47.7942 59.8218C47.373 59.8218 46.9789 60.0216 46.7091 60.1583L46.6705 60.1779L46.5979 60.2146L46.5406 60.2724C46.096 60.7214 46.0963 61.2033 46.0965 61.5133L46.0965 61.5313C46.0965 61.9533 46.2931 62.3489 46.4288 62.6221L46.4837 62.7328L46.5406 62.7903C46.9872 63.2412 47.4686 63.241 47.7771 63.2408L47.7942 63.2408C48.2154 63.2408 48.6095 63.041 48.8793 62.9043L48.9178 62.8848L48.9904 62.8481L49.0477 62.7903C49.4923 62.3413 49.492 61.8593 49.4918 61.5494L49.4918 61.5313C49.4918 61.1094 49.2953 60.7138 49.1595 60.4406L49.0666 60.253L48.9178 60.1779L48.8792 60.1583C48.6094 60.0216 48.2153 59.8218 47.7942 59.8218Z" fill="#0466AD"/>
<path d="M24.3639 77.414H20.9059L20.2949 79H17.1749L21.1529 69.9H24.1689L28.1469 79H24.9749L24.3639 77.414ZM23.5189 75.204L22.6349 72.916L21.7509 75.204H23.5189ZM33.4855 71.759C34.3608 71.759 35.0628 72.0233 35.5915 72.552C36.1288 73.0807 36.3975 73.878 36.3975 74.944V79H33.4595V75.451C33.4595 74.6363 33.1692 74.229 32.5885 74.229C32.2592 74.229 31.9905 74.346 31.7825 74.58C31.5832 74.8053 31.4835 75.165 31.4835 75.659V79H28.5455V71.889H31.3405V72.591C31.6178 72.3137 31.9385 72.1057 32.3025 71.967C32.6665 71.8283 33.0608 71.759 33.4855 71.759ZM40.8584 71.759C42.1064 71.759 43.0598 72.0407 43.7184 72.604C44.3771 73.1587 44.7064 74.0167 44.7064 75.178V79H41.9764V78.064C41.6384 78.7747 40.9668 79.13 39.9614 79.13C39.3981 79.13 38.9171 79.0347 38.5184 78.844C38.1284 78.6447 37.8294 78.3803 37.6214 78.051C37.4221 77.713 37.3224 77.336 37.3224 76.92C37.3224 76.218 37.5911 75.685 38.1284 75.321C38.6658 74.957 39.4804 74.775 40.5724 74.775H41.7554C41.6601 74.2203 41.2138 73.943 40.4164 73.943C40.0958 73.943 39.7708 73.995 39.4414 74.099C39.1121 74.1943 38.8304 74.3287 38.5964 74.502L37.6604 72.565C38.0678 72.3137 38.5574 72.1187 39.1294 71.98C39.7101 71.8327 40.2864 71.759 40.8584 71.759ZM40.8454 77.362C41.0534 77.362 41.2398 77.3057 41.4044 77.193C41.5691 77.0803 41.6904 76.9113 41.7684 76.686V76.192H41.0404C40.4424 76.192 40.1434 76.3913 40.1434 76.79C40.1434 76.9547 40.2041 77.0933 40.3254 77.206C40.4554 77.31 40.6288 77.362 40.8454 77.362ZM45.9762 69.354H48.9142V79H45.9762V69.354ZM58.1334 71.889L55.2084 79.143C54.8357 80.0703 54.3721 80.7203 53.8174 81.093C53.2627 81.4657 52.5824 81.652 51.7764 81.652C51.3777 81.652 50.9747 81.5913 50.5674 81.47C50.1687 81.3573 49.8524 81.2057 49.6184 81.015L50.5934 79C50.7407 79.1127 50.9054 79.2037 51.0874 79.273C51.2781 79.3423 51.4601 79.377 51.6334 79.377C51.9541 79.377 52.1967 79.2817 52.3614 79.091L49.3714 71.889H52.3874L53.8564 75.698L55.3514 71.889H58.1334ZM64.9817 76.855V79H58.1957V77.31L61.1337 74.034H58.2997V71.889H64.8387V73.579L61.9007 76.855H64.9817ZM73.3723 75.438C73.3723 75.4813 73.3593 75.711 73.3333 76.127H68.3933C68.4973 76.3957 68.6706 76.6037 68.9133 76.751C69.1559 76.8897 69.4593 76.959 69.8233 76.959C70.1353 76.959 70.3953 76.92 70.6033 76.842C70.8199 76.764 71.0539 76.6297 71.3053 76.439L72.8393 77.986C72.1459 78.7487 71.1103 79.13 69.7323 79.13C68.8743 79.13 68.1203 78.974 67.4703 78.662C66.8203 78.3413 66.3176 77.8993 65.9623 77.336C65.6069 76.7727 65.4293 76.14 65.4293 75.438C65.4293 74.7273 65.6026 74.0947 65.9493 73.54C66.3046 72.9767 66.7856 72.539 67.3923 72.227C68.0076 71.915 68.6966 71.759 69.4593 71.759C70.1786 71.759 70.8329 71.902 71.4223 72.188C72.0203 72.474 72.4926 72.8943 72.8393 73.449C73.1946 74.0037 73.3723 74.6667 73.3723 75.438ZM69.4853 73.761C69.1819 73.761 68.9306 73.8433 68.7313 74.008C68.5319 74.1727 68.4019 74.4067 68.3413 74.71H70.6293C70.5686 74.4153 70.4386 74.1857 70.2393 74.021C70.0399 73.8477 69.7886 73.761 69.4853 73.761ZM77.0944 72.656C77.6144 72.058 78.3814 71.759 79.3954 71.759V74.359C79.1614 74.3243 78.9447 74.307 78.7454 74.307C77.7401 74.307 77.2374 74.8183 77.2374 75.841V79H74.2994V71.889H77.0944V72.656Z" fill="#0466AD"/>
</svg>
